<mxfile host="app.diagrams.net" modified="2021-10-20T12:23:18.876Z" agent="5.0 (Windows NT 10.0; Win64; x64) AppleWebKit/537.36 (KHTML, like Gecko) Chrome/94.0.4606.81 Safari/537.36" etag="ue2sk4sq6T6qpGlIMNcK" version="15.5.1" type="github">
  <diagram id="56xd8bNkpKymqGvPLC_I" name="Page-1">
    <mxGraphModel dx="1422" dy="705" grid="0" gridSize="10" guides="1" tooltips="1" connect="1" arrows="1" fold="1" page="1" pageScale="1" pageWidth="827" pageHeight="1169" math="0" shadow="0">
      <root>
        <mxCell id="0" />
        <mxCell id="1" parent="0" />
        <mxCell id="ivzEPQWwT_f3EyrG0RgH-1" value="" style="rounded=0;whiteSpace=wrap;html=1;" vertex="1" parent="1">
          <mxGeometry x="46" y="108" width="1310" height="648" as="geometry" />
        </mxCell>
        <mxCell id="ivzEPQWwT_f3EyrG0RgH-2" value="市场信息" style="text;html=1;strokeColor=none;fillColor=none;align=center;verticalAlign=middle;whiteSpace=wrap;rounded=0;" vertex="1" parent="1">
          <mxGeometry x="83" y="132" width="80" height="30" as="geometry" />
        </mxCell>
        <mxCell id="ivzEPQWwT_f3EyrG0RgH-3" value="预出库" style="text;html=1;align=center;verticalAlign=middle;whiteSpace=wrap;rounded=0;" vertex="1" parent="1">
          <mxGeometry x="86" y="181" width="72" height="30" as="geometry" />
        </mxCell>
        <mxCell id="ivzEPQWwT_f3EyrG0RgH-4" value="采购" style="text;html=1;align=center;verticalAlign=middle;whiteSpace=wrap;rounded=0;" vertex="1" parent="1">
          <mxGeometry x="268" y="181" width="72" height="30" as="geometry" />
        </mxCell>
        <mxCell id="ivzEPQWwT_f3EyrG0RgH-5" value="出库" style="text;html=1;align=center;verticalAlign=middle;whiteSpace=wrap;rounded=0;" vertex="1" parent="1">
          <mxGeometry x="352.5" y="181" width="72" height="30" as="geometry" />
        </mxCell>
        <mxCell id="ivzEPQWwT_f3EyrG0RgH-6" value="&lt;font style=&quot;font-size: 40px&quot;&gt;+&lt;/font&gt;" style="text;html=1;strokeColor=none;fillColor=none;align=center;verticalAlign=middle;whiteSpace=wrap;rounded=0;" vertex="1" parent="1">
          <mxGeometry x="80" y="236" width="60" height="30" as="geometry" />
        </mxCell>
        <mxCell id="ivzEPQWwT_f3EyrG0RgH-7" value="搜索" style="text;html=1;strokeColor=none;fillColor=none;align=center;verticalAlign=middle;whiteSpace=wrap;rounded=0;fontSize=12;" vertex="1" parent="1">
          <mxGeometry x="172" y="237" width="60" height="30" as="geometry" />
        </mxCell>
        <mxCell id="ivzEPQWwT_f3EyrG0RgH-8" value="单号+产品类型" style="rounded=1;whiteSpace=wrap;html=1;fontSize=12;" vertex="1" parent="1">
          <mxGeometry x="251" y="234" width="482" height="36" as="geometry" />
        </mxCell>
        <mxCell id="ivzEPQWwT_f3EyrG0RgH-9" value="用户名：" style="text;html=1;strokeColor=none;fillColor=none;align=center;verticalAlign=middle;whiteSpace=wrap;rounded=0;fontSize=12;" vertex="1" parent="1">
          <mxGeometry x="1184" y="122" width="60" height="30" as="geometry" />
        </mxCell>
        <mxCell id="ivzEPQWwT_f3EyrG0RgH-10" value="身份图标" style="text;html=1;strokeColor=none;fillColor=none;align=center;verticalAlign=middle;whiteSpace=wrap;rounded=0;fontSize=12;" vertex="1" parent="1">
          <mxGeometry x="1114" y="122" width="60" height="30" as="geometry" />
        </mxCell>
        <mxCell id="ivzEPQWwT_f3EyrG0RgH-11" value="进销存信息" style="text;html=1;align=center;verticalAlign=middle;whiteSpace=wrap;rounded=0;" vertex="1" parent="1">
          <mxGeometry x="174" y="132" width="80" height="30" as="geometry" />
        </mxCell>
        <mxCell id="ivzEPQWwT_f3EyrG0RgH-12" value="借出" style="text;html=1;strokeColor=none;fillColor=none;align=center;verticalAlign=middle;whiteSpace=wrap;rounded=0;" vertex="1" parent="1">
          <mxGeometry x="444" y="181" width="67" height="30" as="geometry" />
        </mxCell>
        <mxCell id="ivzEPQWwT_f3EyrG0RgH-13" value="售后" style="text;html=1;strokeColor=#6c8ebf;fillColor=#dae8fc;align=center;verticalAlign=middle;whiteSpace=wrap;rounded=0;" vertex="1" parent="1">
          <mxGeometry x="283" y="132" width="80" height="30" as="geometry" />
        </mxCell>
        <mxCell id="ivzEPQWwT_f3EyrG0RgH-14" value="个人信息" style="text;html=1;strokeColor=none;fillColor=none;align=center;verticalAlign=middle;whiteSpace=wrap;rounded=0;" vertex="1" parent="1">
          <mxGeometry x="397" y="132" width="80" height="30" as="geometry" />
        </mxCell>
        <mxCell id="ivzEPQWwT_f3EyrG0RgH-15" value="库存" style="text;html=1;strokeColor=none;fillColor=none;align=center;verticalAlign=middle;whiteSpace=wrap;rounded=0;" vertex="1" parent="1">
          <mxGeometry x="176.5" y="181" width="72" height="30" as="geometry" />
        </mxCell>
        <mxCell id="ivzEPQWwT_f3EyrG0RgH-16" value="" style="rounded=1;whiteSpace=wrap;html=1;fontSize=12;" vertex="1" parent="1">
          <mxGeometry x="76" y="392" width="1186" height="59" as="geometry" />
        </mxCell>
        <mxCell id="ivzEPQWwT_f3EyrG0RgH-17" value="产品类型" style="text;html=1;strokeColor=none;fillColor=none;align=center;verticalAlign=middle;whiteSpace=wrap;rounded=0;fontSize=12;" vertex="1" parent="1">
          <mxGeometry x="122" y="409" width="60" height="30" as="geometry" />
        </mxCell>
        <mxCell id="ivzEPQWwT_f3EyrG0RgH-18" value="产品总数量" style="text;html=1;strokeColor=none;fillColor=none;align=center;verticalAlign=middle;whiteSpace=wrap;rounded=0;fontSize=12;" vertex="1" parent="1">
          <mxGeometry x="240" y="406.5" width="92" height="30" as="geometry" />
        </mxCell>
        <mxCell id="ivzEPQWwT_f3EyrG0RgH-19" value="时间" style="rounded=1;whiteSpace=wrap;html=1;" vertex="1" parent="1">
          <mxGeometry x="755" y="234" width="71" height="34" as="geometry" />
        </mxCell>
        <mxCell id="ivzEPQWwT_f3EyrG0RgH-20" value="产品类型" style="rounded=1;whiteSpace=wrap;html=1;" vertex="1" parent="1">
          <mxGeometry x="265" y="284" width="71" height="34" as="geometry" />
        </mxCell>
        <mxCell id="ivzEPQWwT_f3EyrG0RgH-21" value="已选关键字" style="text;html=1;strokeColor=none;fillColor=none;align=center;verticalAlign=middle;whiteSpace=wrap;rounded=0;" vertex="1" parent="1">
          <mxGeometry x="178" y="284" width="69" height="30" as="geometry" />
        </mxCell>
        <mxCell id="ivzEPQWwT_f3EyrG0RgH-22" value="X" style="rounded=1;whiteSpace=wrap;html=1;" vertex="1" parent="1">
          <mxGeometry x="320" y="274" width="25" height="23" as="geometry" />
        </mxCell>
        <mxCell id="ivzEPQWwT_f3EyrG0RgH-23" value="时间段" style="rounded=1;whiteSpace=wrap;html=1;" vertex="1" parent="1">
          <mxGeometry x="368" y="284" width="71" height="34" as="geometry" />
        </mxCell>
        <mxCell id="ivzEPQWwT_f3EyrG0RgH-24" value="时间段" style="rounded=1;whiteSpace=wrap;html=1;" vertex="1" parent="1">
          <mxGeometry x="368" y="284" width="71" height="34" as="geometry" />
        </mxCell>
        <mxCell id="ivzEPQWwT_f3EyrG0RgH-25" value="X" style="rounded=1;whiteSpace=wrap;html=1;" vertex="1" parent="1">
          <mxGeometry x="424.5" y="276" width="25" height="23" as="geometry" />
        </mxCell>
        <mxCell id="ivzEPQWwT_f3EyrG0RgH-26" value="平均单价" style="text;html=1;strokeColor=none;fillColor=none;align=center;verticalAlign=middle;whiteSpace=wrap;rounded=0;fontSize=12;" vertex="1" parent="1">
          <mxGeometry x="490" y="409" width="60" height="30" as="geometry" />
        </mxCell>
        <mxCell id="ivzEPQWwT_f3EyrG0RgH-27" value="总价" style="text;html=1;strokeColor=none;fillColor=none;align=center;verticalAlign=middle;whiteSpace=wrap;rounded=0;fontSize=12;" vertex="1" parent="1">
          <mxGeometry x="629" y="409" width="60" height="30" as="geometry" />
        </mxCell>
        <mxCell id="ivzEPQWwT_f3EyrG0RgH-28" value="单号" style="rounded=1;whiteSpace=wrap;html=1;" vertex="1" parent="1">
          <mxGeometry x="475" y="282" width="71" height="34" as="geometry" />
        </mxCell>
        <mxCell id="ivzEPQWwT_f3EyrG0RgH-29" value="X" style="rounded=1;whiteSpace=wrap;html=1;" vertex="1" parent="1">
          <mxGeometry x="527" y="278" width="25" height="23" as="geometry" />
        </mxCell>
        <mxCell id="ivzEPQWwT_f3EyrG0RgH-30" value="记录" style="text;html=1;align=center;verticalAlign=middle;whiteSpace=wrap;rounded=0;" vertex="1" parent="1">
          <mxGeometry x="527" y="181" width="80" height="30" as="geometry" />
        </mxCell>
        <mxCell id="ivzEPQWwT_f3EyrG0RgH-31" value="统计" style="text;html=1;strokeColor=#6c8ebf;fillColor=#dae8fc;align=center;verticalAlign=middle;whiteSpace=wrap;rounded=0;" vertex="1" parent="1">
          <mxGeometry x="619" y="181" width="80" height="30" as="geometry" />
        </mxCell>
        <mxCell id="ivzEPQWwT_f3EyrG0RgH-32" value="产品类目" style="text;html=1;strokeColor=none;fillColor=none;align=center;verticalAlign=middle;whiteSpace=wrap;rounded=0;fontSize=12;" vertex="1" parent="1">
          <mxGeometry x="363" y="409" width="92" height="30" as="geometry" />
        </mxCell>
        <mxCell id="ivzEPQWwT_f3EyrG0RgH-33" value="关联订单列表" style="text;html=1;strokeColor=none;fillColor=none;align=center;verticalAlign=middle;whiteSpace=wrap;rounded=0;fontSize=12;" vertex="1" parent="1">
          <mxGeometry x="747" y="409" width="92" height="30" as="geometry" />
        </mxCell>
      </root>
    </mxGraphModel>
  </diagram>
</mxfile>
